<?xml version="1.0" standalone="no"?>
<!DOCTYPE svg PUBLIC "-//W3C//DTD SVG 20010904//EN"
 "http://www.w3.org/TR/2001/REC-SVG-20010904/DTD/svg10.dtd">
<svg version="1.0" xmlns="http://www.w3.org/2000/svg"
 width="500.000000pt" height="500.000000pt" viewBox="0 0 500.000000 500.000000"
 preserveAspectRatio="xMidYMid meet">
<metadata>
Created by potrace 1.14, written by Peter Selinger 2001-2017
</metadata>
<g transform="translate(0.000000,500.000000) scale(0.100000,-0.100000)"
fill="#000000" stroke="none">
<path d="M555 4984 c-270 -57 -483 -271 -540 -545 -22 -106 -22 -3772 0 -3878
47 -226 183 -395 397 -496 147 -69 26 -65 2088 -65 2062 0 1941 -4 2088 65
214 101 350 270 397 496 22 106 22 3772 0 3878 -47 226 -183 395 -397 496
-148 69 -25 65 -2095 64 -1600 -1 -1878 -3 -1938 -15z m3137 -983 c80 -65 219
-205 287 -291 212 -266 357 -603 407 -948 24 -162 22 -427 -4 -582 -48 -285
-153 -553 -306 -783 -113 -168 -316 -386 -403 -431 -59 -30 -128 -13 -176 43
-63 75 -43 156 63 250 249 221 435 550 512 901 31 143 33 471 4 625 -41 219
-131 441 -257 632 -56 84 -108 143 -230 265 -188 185 -204 215 -160 298 28 53
74 80 137 80 50 0 57 -4 126 -59z m-2243 34 c41 -21 79 -70 87 -111 11 -59
-17 -111 -101 -187 -262 -238 -455 -590 -515 -941 -25 -147 -27 -396 -5 -536
64 -399 255 -742 564 -1011 114 -100 134 -153 88 -234 -30 -53 -77 -77 -143
-72 -44 3 -61 11 -115 54 -75 60 -228 214 -293 294 -180 224 -322 529 -381
823 -119 589 22 1168 399 1638 91 113 247 265 293 285 38 17 88 16 122 -2z
m352 -381 c42 -21 69 -73 69 -130 -1 -63 -10 -77 -102 -164 -186 -173 -311
-403 -355 -655 -22 -131 -13 -347 20 -477 59 -224 141 -363 320 -542 71 -71
133 -140 138 -153 25 -67 -8 -151 -71 -183 -76 -39 -129 -24 -233 68 -222 195
-382 465 -454 762 -34 145 -43 420 -18 572 33 202 114 405 236 589 76 114 266
309 319 326 40 13 91 8 131 -13z m1514 1 c20 -8 88 -67 153 -132 216 -215 345
-453 409 -753 26 -123 26 -450 -1 -570 -64 -295 -199 -544 -407 -752 -116
-115 -151 -135 -219 -119 -81 18 -120 67 -120 147 0 60 8 72 127 191 136 138
225 279 283 451 97 291 76 601 -60 878 -65 132 -144 238 -257 344 -99 92 -123
127 -123 178 0 108 113 180 215 137z m-1228 -355 c42 -25 63 -68 63 -127 0
-57 -13 -78 -95 -160 -72 -72 -136 -176 -172 -281 -24 -69 -27 -92 -28 -217 0
-121 3 -150 23 -209 43 -128 88 -200 195 -313 66 -69 71 -77 75 -127 5 -64
-13 -105 -60 -134 -88 -54 -157 -33 -263 80 -321 339 -370 862 -119 1251 50
77 170 208 219 238 41 25 120 25 162 -1z m952 -10 c44 -12 111 -68 178 -149
153 -185 233 -406 233 -651 1 -277 -92 -508 -284 -708 -83 -87 -109 -102 -171
-102 -91 0 -145 54 -145 145 0 59 8 72 107 178 136 147 199 317 190 517 -8
187 -69 325 -211 477 -76 81 -80 87 -84 138 -6 69 23 119 82 146 47 21 59 22
105 9z m-357 -404 c229 -110 307 -391 168 -604 -48 -74 -118 -137 -188 -170
-51 -24 -68 -27 -172 -27 -104 0 -121 3 -172 27 -156 73 -245 225 -236 403 5
103 44 191 120 271 98 104 175 135 323 131 85 -3 109 -7 157 -31z"/>
</g>
</svg>
